<?xml version="1.0" encoding="UTF-8" standalone="no"?>
<!DOCTYPE svg PUBLIC "-//W3C//DTD SVG 1.1//EN"
 "http://www.w3.org/Graphics/SVG/1.1/DTD/svg11.dtd">
<!-- Generated by graphviz version 12.2.1 (20241206.2353)
 -->
<!-- Title: G Pages: 1 -->
<svg width="170pt" height="260pt"
 viewBox="0.00 0.00 170.00 260.00" xmlns="http://www.w3.org/2000/svg" xmlns:xlink="http://www.w3.org/1999/xlink">
<g id="graph0" class="graph" transform="scale(1 1) rotate(0) translate(4 256)">
<title>G</title>
<!-- root -->
<g id="node1" class="node">
<title>root</title>
<text text-anchor="middle" x="63" y="-227.05" font-family="Helvetica,sans-Serif" font-size="16.00">∧</text>
</g>
<!-- p1 -->
<g id="node2" class="node">
<title>p1</title>
<text text-anchor="middle" x="27" y="-155.05" font-family="Helvetica,sans-Serif" font-size="16.00">p</text>
</g>
<!-- root&#45;&gt;p1 -->
<g id="edge1" class="edge">
<title>root&#45;&gt;p1</title>
<path fill="none" stroke="black" d="M54.29,-216.05C50.26,-208.23 45.38,-198.75 40.87,-189.98"/>
<polygon fill="black" stroke="black" points="44.01,-188.43 36.33,-181.13 37.79,-191.63 44.01,-188.43"/>
</g>
<!-- imp -->
<g id="node3" class="node">
<title>imp</title>
<text text-anchor="middle" x="99" y="-156.55" font-family="Helvetica,sans-Serif" font-size="16.00">→</text>
</g>
<!-- root&#45;&gt;imp -->
<g id="edge2" class="edge">
<title>root&#45;&gt;imp</title>
<path fill="none" stroke="black" d="M71.71,-216.05C75.74,-208.23 80.62,-198.75 85.13,-189.98"/>
<polygon fill="black" stroke="black" points="88.21,-191.63 89.67,-181.13 81.99,-188.43 88.21,-191.63"/>
</g>
<!-- n1 -->
<g id="node4" class="node">
<title>n1</title>
<text text-anchor="middle" x="63" y="-83.05" font-family="Helvetica,sans-Serif" font-size="16.00">¬</text>
</g>
<!-- imp&#45;&gt;n1 -->
<g id="edge3" class="edge">
<title>imp&#45;&gt;n1</title>
<path fill="none" stroke="black" d="M90.29,-144.05C86.26,-136.23 81.38,-126.75 76.87,-117.98"/>
<polygon fill="black" stroke="black" points="80.01,-116.43 72.33,-109.13 73.79,-119.63 80.01,-116.43"/>
</g>
<!-- n2 -->
<g id="node5" class="node">
<title>n2</title>
<text text-anchor="middle" x="135" y="-83.05" font-family="Helvetica,sans-Serif" font-size="16.00">¬</text>
</g>
<!-- imp&#45;&gt;n2 -->
<g id="edge4" class="edge">
<title>imp&#45;&gt;n2</title>
<path fill="none" stroke="black" d="M107.71,-144.05C111.74,-136.23 116.62,-126.75 121.13,-117.98"/>
<polygon fill="black" stroke="black" points="124.21,-119.63 125.67,-109.13 117.99,-116.43 124.21,-119.63"/>
</g>
<!-- q1 -->
<g id="node6" class="node">
<title>q1</title>
<text text-anchor="middle" x="63" y="-11.05" font-family="Helvetica,sans-Serif" font-size="16.00">q</text>
</g>
<!-- n1&#45;&gt;q1 -->
<g id="edge5" class="edge">
<title>n1&#45;&gt;q1</title>
<path fill="none" stroke="black" d="M63,-72.05C63,-64.57 63,-55.58 63,-47.14"/>
<polygon fill="black" stroke="black" points="66.5,-47.3 63,-37.3 59.5,-47.3 66.5,-47.3"/>
</g>
<!-- p2 -->
<g id="node7" class="node">
<title>p2</title>
<text text-anchor="middle" x="135" y="-11.05" font-family="Helvetica,sans-Serif" font-size="16.00">p</text>
</g>
<!-- n2&#45;&gt;p2 -->
<g id="edge6" class="edge">
<title>n2&#45;&gt;p2</title>
<path fill="none" stroke="black" d="M135,-72.05C135,-64.57 135,-55.58 135,-47.14"/>
<polygon fill="black" stroke="black" points="138.5,-47.3 135,-37.3 131.5,-47.3 138.5,-47.3"/>
</g>
</g>
</svg>
